<?xml version="1.0" encoding="UTF-8" standalone="no"?><svg xmlns="http://www.w3.org/2000/svg" xmlns:xlink="http://www.w3.org/1999/xlink" contentScriptType="application/ecmascript" contentStyleType="text/css" height="369px" preserveAspectRatio="none" style="width:1079px;height:369px;" version="1.1" viewBox="0 0 1079 369" width="1079px" zoomAndPan="magnify"><defs><filter height="300%" id="fn2h42eck7anc" width="300%" x="-1" y="-1"><feGaussianBlur result="blurOut" stdDeviation="2.0"/><feColorMatrix in="blurOut" result="blurOut2" type="matrix" values="0 0 0 0 0 0 0 0 0 0 0 0 0 0 0 0 0 0 .4 0"/><feOffset dx="4.0" dy="4.0" in="blurOut2" result="blurOut3"/><feBlend in="SourceGraphic" in2="blurOut3" mode="normal"/></filter></defs><g><!--MD5=[7a429f52654fdc9202befee971fc9994]
class CourseController--><a href="java:observer.pattern.CourseController" target="_top" title="java:observer.pattern.CourseController" xlink:actuate="onRequest" xlink:href="java:observer.pattern.CourseController" xlink:show="new" xlink:title="java:observer.pattern.CourseController" xlink:type="simple"><rect codeLine="1" fill="#FEFECE" filter="url(#fn2h42eck7anc)" height="163.2422" id="CourseController" style="stroke:#A80036;stroke-width:1.5;" width="252" x="101" y="192"/><ellipse cx="171.75" cy="208" fill="#ADD1B2" rx="11" ry="11" style="stroke:#A80036;stroke-width:1.0;"/><path d="M174.0938,203.6719 C173.1563,203.2344 172.5625,203.0938 171.6875,203.0938 C169.0625,203.0938 167.0625,205.1719 167.0625,207.8906 L167.0625,209.0156 C167.0625,211.5938 169.1719,213.4844 172.0625,213.4844 C173.2813,213.4844 174.4375,213.1875 175.1875,212.6406 C175.7656,212.2344 176.0938,211.7813 176.0938,211.3906 C176.0938,210.9375 175.7031,210.5469 175.2344,210.5469 C175.0156,210.5469 174.8125,210.625 174.625,210.8125 C174.1719,211.2969 174.1719,211.2969 173.9844,211.3906 C173.5625,211.6563 172.875,211.7813 172.1094,211.7813 C170.0625,211.7813 168.7656,210.6875 168.7656,208.9844 L168.7656,207.8906 C168.7656,206.1094 170.0156,204.7969 171.75,204.7969 C172.3281,204.7969 172.9375,204.9531 173.4063,205.2031 C173.8906,205.4844 174.0625,205.7031 174.1563,206.1094 C174.2188,206.5156 174.25,206.6406 174.3906,206.7656 C174.5313,206.9063 174.7656,207.0156 174.9844,207.0156 C175.25,207.0156 175.5156,206.875 175.6875,206.6563 C175.7969,206.5 175.8281,206.3125 175.8281,205.8906 L175.8281,204.4688 C175.8281,204.0313 175.8125,203.9063 175.7188,203.75 C175.5625,203.4844 175.2813,203.3438 174.9844,203.3438 C174.6875,203.3438 174.4844,203.4375 174.2656,203.75 L174.0938,203.6719 Z " fill="#000000"/><text fill="#000000" font-family="sans-serif" font-size="12" lengthAdjust="spacingAndGlyphs" textLength="102" x="192.25" y="212.1543">CourseController</text><line style="stroke:#A80036;stroke-width:1.5;" x1="102" x2="352" y1="224" y2="224"/><rect fill="none" height="6" style="stroke:#C82930;stroke-width:1.0;" width="6" x="109" y="232"/><text fill="#000000" font-family="sans-serif" font-size="11" lengthAdjust="spacingAndGlyphs" textLength="136" x="121" y="238.2104">CourseData courseData</text><rect fill="none" height="6" style="stroke:#C82930;stroke-width:1.0;" width="6" x="109" y="244.8047"/><text fill="#000000" font-family="sans-serif" font-size="11" lengthAdjust="spacingAndGlyphs" textLength="132" x="121" y="251.0151">Vector&lt;JSlider&gt; sliders</text><rect fill="none" height="6" style="stroke:#C82930;stroke-width:1.0;" width="6" x="109" y="257.6094"/><text fill="#000000" font-family="sans-serif" font-size="11" lengthAdjust="spacingAndGlyphs" textLength="107" x="121" y="263.8198">JPanel coursePanel</text><line style="stroke:#A80036;stroke-width:1.5;" x1="102" x2="352" y1="270.4141" y2="270.4141"/><ellipse cx="112" cy="281.4141" fill="#84BE84" rx="3" ry="3" style="stroke:#038048;stroke-width:1.0;"/><text fill="#000000" font-family="sans-serif" font-size="11" lengthAdjust="spacingAndGlyphs" textLength="218" x="121" y="284.6245">CourseController(CourseData courses)</text><ellipse cx="112" cy="294.2188" fill="#84BE84" rx="3" ry="3" style="stroke:#038048;stroke-width:1.0;"/><text fill="#000000" font-family="sans-serif" font-size="11" lengthAdjust="spacingAndGlyphs" textLength="216" x="121" y="297.4292">void addCourse(CourseRecord record)</text><ellipse cx="112" cy="307.0234" fill="#84BE84" rx="3" ry="3" style="stroke:#038048;stroke-width:1.0;"/><text fill="#000000" font-family="sans-serif" font-size="11" lengthAdjust="spacingAndGlyphs" textLength="153" x="121" y="310.2339">void update(Observable o)</text><ellipse cx="112" cy="319.8281" fill="#84BE84" rx="3" ry="3" style="stroke:#038048;stroke-width:1.0;"/><text fill="#000000" font-family="sans-serif" font-size="11" lengthAdjust="spacingAndGlyphs" textLength="226" x="121" y="323.0386">void actionPerformed(ActionEvent arg0)</text><ellipse cx="112" cy="332.6328" fill="#84BE84" rx="3" ry="3" style="stroke:#038048;stroke-width:1.0;"/><text fill="#000000" font-family="sans-serif" font-size="11" lengthAdjust="spacingAndGlyphs" textLength="222" x="121" y="335.8433">void stateChanged(ChangeEvent arg0)</text><ellipse cx="112" cy="345.4375" fill="#84BE84" rx="3" ry="3" style="stroke:#038048;stroke-width:1.0;"/><text fill="#000000" font-family="sans-serif" font-size="11" lengthAdjust="spacingAndGlyphs" text-decoration="underline" textLength="133" x="121" y="348.6479">void main(String[] args)</text></a><!--MD5=[36afe292eb27441132c327893668631d]
class JPanel--><a href="java:javax.swing.JPanel" target="_top" title="java:javax.swing.JPanel" xlink:actuate="onRequest" xlink:href="java:javax.swing.JPanel" xlink:show="new" xlink:title="java:javax.swing.JPanel" xlink:type="simple"><rect codeLine="31" fill="#FEFECE" filter="url(#fn2h42eck7anc)" height="48" id="JPanel" style="stroke:#A80036;stroke-width:1.5;" width="67" x="321.5" y="45.5"/><ellipse cx="336.5" cy="61.5" fill="#ADD1B2" rx="11" ry="11" style="stroke:#A80036;stroke-width:1.0;"/><path d="M338.8438,57.1719 C337.9063,56.7344 337.3125,56.5938 336.4375,56.5938 C333.8125,56.5938 331.8125,58.6719 331.8125,61.3906 L331.8125,62.5156 C331.8125,65.0938 333.9219,66.9844 336.8125,66.9844 C338.0313,66.9844 339.1875,66.6875 339.9375,66.1406 C340.5156,65.7344 340.8438,65.2813 340.8438,64.8906 C340.8438,64.4375 340.4531,64.0469 339.9844,64.0469 C339.7656,64.0469 339.5625,64.125 339.375,64.3125 C338.9219,64.7969 338.9219,64.7969 338.7344,64.8906 C338.3125,65.1563 337.625,65.2813 336.8594,65.2813 C334.8125,65.2813 333.5156,64.1875 333.5156,62.4844 L333.5156,61.3906 C333.5156,59.6094 334.7656,58.2969 336.5,58.2969 C337.0781,58.2969 337.6875,58.4531 338.1563,58.7031 C338.6406,58.9844 338.8125,59.2031 338.9063,59.6094 C338.9688,60.0156 339,60.1406 339.1406,60.2656 C339.2813,60.4063 339.5156,60.5156 339.7344,60.5156 C340,60.5156 340.2656,60.375 340.4375,60.1563 C340.5469,60 340.5781,59.8125 340.5781,59.3906 L340.5781,57.9688 C340.5781,57.5313 340.5625,57.4063 340.4688,57.25 C340.3125,56.9844 340.0313,56.8438 339.7344,56.8438 C339.4375,56.8438 339.2344,56.9375 339.0156,57.25 L338.8438,57.1719 Z " fill="#000000"/><text fill="#000000" font-family="sans-serif" font-size="12" lengthAdjust="spacingAndGlyphs" textLength="35" x="350.5" y="65.6543">JPanel</text><line style="stroke:#A80036;stroke-width:1.5;" x1="322.5" x2="387.5" y1="77.5" y2="77.5"/><line style="stroke:#A80036;stroke-width:1.5;" x1="322.5" x2="387.5" y1="85.5" y2="85.5"/></a><!--MD5=[d40932010816485ec57b44b6eea2392a]
class Observer--><a href="java:observer.pattern.Observer" target="_top" title="java:observer.pattern.Observer" xlink:actuate="onRequest" xlink:href="java:observer.pattern.Observer" xlink:show="new" xlink:title="java:observer.pattern.Observer" xlink:type="simple"><rect codeLine="59" fill="#FEFECE" filter="url(#fn2h42eck7anc)" height="60.8047" id="Observer" style="stroke:#A80036;stroke-width:1.5;" width="165" x="423.5" y="39"/><ellipse cx="474.75" cy="55" fill="#B4A7E5" rx="11" ry="11" style="stroke:#A80036;stroke-width:1.0;"/><path d="M475.7031,51.7813 L477.4219,51.7813 C477.8125,51.7813 478,51.75 478.125,51.6719 C478.3906,51.5156 478.5313,51.2344 478.5313,50.9375 C478.5313,50.6719 478.4219,50.4063 478.1875,50.2344 C478.0156,50.125 477.875,50.0938 477.4219,50.0938 L472.2813,50.0938 C471.8438,50.0938 471.7188,50.1094 471.5625,50.2031 C471.3125,50.3594 471.1563,50.6563 471.1563,50.9375 C471.1563,51.2188 471.2969,51.4688 471.5156,51.6406 C471.6719,51.75 471.8594,51.7813 472.2813,51.7813 L474,51.7813 L474,58.2969 L472.2813,58.2969 C471.8438,58.2969 471.7188,58.3125 471.5625,58.4219 C471.3125,58.5781 471.1563,58.8594 471.1563,59.1563 C471.1563,59.4063 471.2969,59.6719 471.5156,59.8281 C471.6719,59.9531 471.875,60 472.2813,60 L477.4219,60 C478.1719,60 478.5313,59.7188 478.5313,59.1563 C478.5313,58.875 478.4219,58.625 478.1875,58.4531 C478.0156,58.3281 477.875,58.2969 477.4219,58.2969 L475.7031,58.2969 L475.7031,51.7813 Z " fill="#000000"/><text fill="#000000" font-family="sans-serif" font-size="12" font-style="italic" lengthAdjust="spacingAndGlyphs" textLength="54" x="495.25" y="59.1543">Observer</text><line style="stroke:#A80036;stroke-width:1.5;" x1="424.5" x2="587.5" y1="71" y2="71"/><line style="stroke:#A80036;stroke-width:1.5;" x1="424.5" x2="587.5" y1="79" y2="79"/><text fill="#000000" font-family="sans-serif" font-size="11" lengthAdjust="spacingAndGlyphs" textLength="153" x="429.5" y="93.2104">void update(Observable o)</text></a><!--MD5=[a94ef3b8c8e4fd23532822afff4ed5f3]
class ChangeListener--><a href="java:javax.swing.event.ChangeListener" target="_top" title="java:javax.swing.event.ChangeListener" xlink:actuate="onRequest" xlink:href="java:javax.swing.event.ChangeListener" xlink:show="new" xlink:title="java:javax.swing.event.ChangeListener" xlink:type="simple"><rect codeLine="18" fill="#FEFECE" filter="url(#fn2h42eck7anc)" height="48" id="ChangeListener" style="stroke:#A80036;stroke-width:1.5;" width="126" x="7" y="45.5"/><ellipse cx="22" cy="61.5" fill="#B4A7E5" rx="11" ry="11" style="stroke:#A80036;stroke-width:1.0;"/><path d="M22.9531,58.2813 L24.6719,58.2813 C25.0625,58.2813 25.25,58.25 25.375,58.1719 C25.6406,58.0156 25.7813,57.7344 25.7813,57.4375 C25.7813,57.1719 25.6719,56.9063 25.4375,56.7344 C25.2656,56.625 25.125,56.5938 24.6719,56.5938 L19.5313,56.5938 C19.0938,56.5938 18.9688,56.6094 18.8125,56.7031 C18.5625,56.8594 18.4063,57.1563 18.4063,57.4375 C18.4063,57.7188 18.5469,57.9688 18.7656,58.1406 C18.9219,58.25 19.1094,58.2813 19.5313,58.2813 L21.25,58.2813 L21.25,64.7969 L19.5313,64.7969 C19.0938,64.7969 18.9688,64.8125 18.8125,64.9219 C18.5625,65.0781 18.4063,65.3594 18.4063,65.6563 C18.4063,65.9063 18.5469,66.1719 18.7656,66.3281 C18.9219,66.4531 19.125,66.5 19.5313,66.5 L24.6719,66.5 C25.4219,66.5 25.7813,66.2188 25.7813,65.6563 C25.7813,65.375 25.6719,65.125 25.4375,64.9531 C25.2656,64.8281 25.125,64.7969 24.6719,64.7969 L22.9531,64.7969 L22.9531,58.2813 Z " fill="#000000"/><text fill="#000000" font-family="sans-serif" font-size="12" font-style="italic" lengthAdjust="spacingAndGlyphs" textLength="94" x="36" y="65.6543">ChangeListener</text><line style="stroke:#A80036;stroke-width:1.5;" x1="8" x2="132" y1="77.5" y2="77.5"/><line style="stroke:#A80036;stroke-width:1.5;" x1="8" x2="132" y1="85.5" y2="85.5"/></a><!--MD5=[04935357b5c5a2aec56a7c93da5b843d]
class ActionListener--><a href="java:java.awt.event.ActionListener" target="_top" title="java:java.awt.event.ActionListener" xlink:actuate="onRequest" xlink:href="java:java.awt.event.ActionListener" xlink:show="new" xlink:title="java:java.awt.event.ActionListener" xlink:type="simple"><rect codeLine="21" fill="#FEFECE" filter="url(#fn2h42eck7anc)" height="48" id="ActionListener" style="stroke:#A80036;stroke-width:1.5;" width="118" x="168" y="45.5"/><ellipse cx="183" cy="61.5" fill="#B4A7E5" rx="11" ry="11" style="stroke:#A80036;stroke-width:1.0;"/><path d="M183.9531,58.2813 L185.6719,58.2813 C186.0625,58.2813 186.25,58.25 186.375,58.1719 C186.6406,58.0156 186.7813,57.7344 186.7813,57.4375 C186.7813,57.1719 186.6719,56.9063 186.4375,56.7344 C186.2656,56.625 186.125,56.5938 185.6719,56.5938 L180.5313,56.5938 C180.0938,56.5938 179.9688,56.6094 179.8125,56.7031 C179.5625,56.8594 179.4063,57.1563 179.4063,57.4375 C179.4063,57.7188 179.5469,57.9688 179.7656,58.1406 C179.9219,58.25 180.1094,58.2813 180.5313,58.2813 L182.25,58.2813 L182.25,64.7969 L180.5313,64.7969 C180.0938,64.7969 179.9688,64.8125 179.8125,64.9219 C179.5625,65.0781 179.4063,65.3594 179.4063,65.6563 C179.4063,65.9063 179.5469,66.1719 179.7656,66.3281 C179.9219,66.4531 180.125,66.5 180.5313,66.5 L185.6719,66.5 C186.4219,66.5 186.7813,66.2188 186.7813,65.6563 C186.7813,65.375 186.6719,65.125 186.4375,64.9531 C186.2656,64.8281 186.125,64.7969 185.6719,64.7969 L183.9531,64.7969 L183.9531,58.2813 Z " fill="#000000"/><text fill="#000000" font-family="sans-serif" font-size="12" font-style="italic" lengthAdjust="spacingAndGlyphs" textLength="86" x="197" y="65.6543">ActionListener</text><line style="stroke:#A80036;stroke-width:1.5;" x1="169" x2="285" y1="77.5" y2="77.5"/><line style="stroke:#A80036;stroke-width:1.5;" x1="169" x2="285" y1="85.5" y2="85.5"/></a><!--MD5=[335017895ae63a261adc2da81a717e77]
class BarChartObserver--><a href="java:observer.pattern.BarChartObserver" target="_top" title="java:observer.pattern.BarChartObserver" xlink:actuate="onRequest" xlink:href="java:observer.pattern.BarChartObserver" xlink:show="new" xlink:title="java:observer.pattern.BarChartObserver" xlink:type="simple"><rect codeLine="25" fill="#FEFECE" filter="url(#fn2h42eck7anc)" height="99.2188" id="BarChartObserver" style="stroke:#A80036;stroke-width:1.5;" width="232" x="389" y="224"/><ellipse cx="446.25" cy="240" fill="#ADD1B2" rx="11" ry="11" style="stroke:#A80036;stroke-width:1.0;"/><path d="M448.5938,235.6719 C447.6563,235.2344 447.0625,235.0938 446.1875,235.0938 C443.5625,235.0938 441.5625,237.1719 441.5625,239.8906 L441.5625,241.0156 C441.5625,243.5938 443.6719,245.4844 446.5625,245.4844 C447.7813,245.4844 448.9375,245.1875 449.6875,244.6406 C450.2656,244.2344 450.5938,243.7813 450.5938,243.3906 C450.5938,242.9375 450.2031,242.5469 449.7344,242.5469 C449.5156,242.5469 449.3125,242.625 449.125,242.8125 C448.6719,243.2969 448.6719,243.2969 448.4844,243.3906 C448.0625,243.6563 447.375,243.7813 446.6094,243.7813 C444.5625,243.7813 443.2656,242.6875 443.2656,240.9844 L443.2656,239.8906 C443.2656,238.1094 444.5156,236.7969 446.25,236.7969 C446.8281,236.7969 447.4375,236.9531 447.9063,237.2031 C448.3906,237.4844 448.5625,237.7031 448.6563,238.1094 C448.7188,238.5156 448.75,238.6406 448.8906,238.7656 C449.0313,238.9063 449.2656,239.0156 449.4844,239.0156 C449.75,239.0156 450.0156,238.875 450.1875,238.6563 C450.2969,238.5 450.3281,238.3125 450.3281,237.8906 L450.3281,236.4688 C450.3281,236.0313 450.3125,235.9063 450.2188,235.75 C450.0625,235.4844 449.7813,235.3438 449.4844,235.3438 C449.1875,235.3438 448.9844,235.4375 448.7656,235.75 L448.5938,235.6719 Z " fill="#000000"/><text fill="#000000" font-family="sans-serif" font-size="12" lengthAdjust="spacingAndGlyphs" textLength="109" x="466.75" y="244.1543">BarChartObserver</text><line style="stroke:#A80036;stroke-width:1.5;" x1="390" x2="620" y1="256" y2="256"/><rect fill="none" height="6" style="stroke:#C82930;stroke-width:1.0;" width="6" x="397" y="264"/><text fill="#000000" font-family="sans-serif" font-size="11" lengthAdjust="spacingAndGlyphs" textLength="203" x="409" y="270.2104">Vector&lt;CourseRecord&gt; courseData</text><line style="stroke:#A80036;stroke-width:1.5;" x1="390" x2="620" y1="276.8047" y2="276.8047"/><ellipse cx="400" cy="287.8047" fill="#84BE84" rx="3" ry="3" style="stroke:#038048;stroke-width:1.0;"/><text fill="#000000" font-family="sans-serif" font-size="11" lengthAdjust="spacingAndGlyphs" textLength="206" x="409" y="291.0151">BarChartObserver(CourseData data)</text><ellipse cx="400" cy="300.6094" fill="#84BE84" rx="3" ry="3" style="stroke:#038048;stroke-width:1.0;"/><text fill="#000000" font-family="sans-serif" font-size="11" lengthAdjust="spacingAndGlyphs" textLength="124" x="409" y="303.8198">void paint(Graphics g)</text><ellipse cx="400" cy="313.4141" fill="#84BE84" rx="3" ry="3" style="stroke:#038048;stroke-width:1.0;"/><text fill="#000000" font-family="sans-serif" font-size="11" lengthAdjust="spacingAndGlyphs" textLength="153" x="409" y="316.6245">void update(Observable o)</text></a><!--MD5=[c24ba912c7b50599aaf1eae222d375f0]
class CourseData--><a href="java:observer.pattern.CourseData" target="_top" title="java:observer.pattern.CourseData" xlink:actuate="onRequest" xlink:href="java:observer.pattern.CourseData" xlink:show="new" xlink:title="java:observer.pattern.CourseData" xlink:type="simple"><rect codeLine="39" fill="#FEFECE" filter="url(#fn2h42eck7anc)" height="112.0234" id="CourseData" style="stroke:#A80036;stroke-width:1.5;" width="409" x="656.5" y="217.5"/><ellipse cx="821.75" cy="233.5" fill="#ADD1B2" rx="11" ry="11" style="stroke:#A80036;stroke-width:1.0;"/><path d="M824.0938,229.1719 C823.1563,228.7344 822.5625,228.5938 821.6875,228.5938 C819.0625,228.5938 817.0625,230.6719 817.0625,233.3906 L817.0625,234.5156 C817.0625,237.0938 819.1719,238.9844 822.0625,238.9844 C823.2813,238.9844 824.4375,238.6875 825.1875,238.1406 C825.7656,237.7344 826.0938,237.2813 826.0938,236.8906 C826.0938,236.4375 825.7031,236.0469 825.2344,236.0469 C825.0156,236.0469 824.8125,236.125 824.625,236.3125 C824.1719,236.7969 824.1719,236.7969 823.9844,236.8906 C823.5625,237.1563 822.875,237.2813 822.1094,237.2813 C820.0625,237.2813 818.7656,236.1875 818.7656,234.4844 L818.7656,233.3906 C818.7656,231.6094 820.0156,230.2969 821.75,230.2969 C822.3281,230.2969 822.9375,230.4531 823.4063,230.7031 C823.8906,230.9844 824.0625,231.2031 824.1563,231.6094 C824.2188,232.0156 824.25,232.1406 824.3906,232.2656 C824.5313,232.4063 824.7656,232.5156 824.9844,232.5156 C825.25,232.5156 825.5156,232.375 825.6875,232.1563 C825.7969,232 825.8281,231.8125 825.8281,231.3906 L825.8281,229.9688 C825.8281,229.5313 825.8125,229.4063 825.7188,229.25 C825.5625,228.9844 825.2813,228.8438 824.9844,228.8438 C824.6875,228.8438 824.4844,228.9375 824.2656,229.25 L824.0938,229.1719 Z " fill="#000000"/><text fill="#000000" font-family="sans-serif" font-size="12" lengthAdjust="spacingAndGlyphs" textLength="70" x="842.25" y="237.6543">CourseData</text><line style="stroke:#A80036;stroke-width:1.5;" x1="657.5" x2="1064.5" y1="249.5" y2="249.5"/><rect fill="none" height="6" style="stroke:#C82930;stroke-width:1.0;" width="6" x="664.5" y="257.5"/><text fill="#000000" font-family="sans-serif" font-size="11" lengthAdjust="spacingAndGlyphs" textLength="203" x="676.5" y="263.7104">Vector&lt;CourseRecord&gt; courseData</text><line style="stroke:#A80036;stroke-width:1.5;" x1="657.5" x2="1064.5" y1="270.3047" y2="270.3047"/><ellipse cx="667.5" cy="281.3047" fill="#84BE84" rx="3" ry="3" style="stroke:#038048;stroke-width:1.0;"/><text fill="#000000" font-family="sans-serif" font-size="11" lengthAdjust="spacingAndGlyphs" textLength="75" x="676.5" y="284.5151">CourseData()</text><ellipse cx="667.5" cy="294.1094" fill="#84BE84" rx="3" ry="3" style="stroke:#038048;stroke-width:1.0;"/><text fill="#000000" font-family="sans-serif" font-size="11" lengthAdjust="spacingAndGlyphs" textLength="296" x="676.5" y="297.3198">void addCourseRecord(CourseRecord courseRecord)</text><ellipse cx="667.5" cy="306.9141" fill="#84BE84" rx="3" ry="3" style="stroke:#038048;stroke-width:1.0;"/><text fill="#000000" font-family="sans-serif" font-size="11" lengthAdjust="spacingAndGlyphs" textLength="383" x="676.5" y="310.1245">void changeCourseRecord(String subjectName, int numOfStudents)</text><ellipse cx="667.5" cy="319.7188" fill="#84BE84" rx="3" ry="3" style="stroke:#038048;stroke-width:1.0;"/><text fill="#000000" font-family="sans-serif" font-size="11" lengthAdjust="spacingAndGlyphs" textLength="206" x="676.5" y="322.9292">Vector&lt;CourseRecord&gt; getUpdate()</text></a><!--MD5=[c0bd9f44073f1a51428d87d6a9cf071b]
class Observable--><a href="java:observer.pattern.Observable" target="_top" title="java:observer.pattern.Observable" xlink:actuate="onRequest" xlink:href="java:observer.pattern.Observable" xlink:show="new" xlink:title="java:observer.pattern.Observable" xlink:type="simple"><rect codeLine="50" fill="#FEFECE" filter="url(#fn2h42eck7anc)" height="124.8281" id="Observable" style="stroke:#A80036;stroke-width:1.5;" width="195" x="763.5" y="7"/><ellipse cx="823.25" cy="23" fill="#A9DCDF" rx="11" ry="11" style="stroke:#A80036;stroke-width:1.0;"/><path d="M825.3281,24.8125 L825.7188,25.7969 L825.3281,25.7969 C824.875,25.7969 824.7656,25.8125 824.6094,25.9219 C824.3594,26.0781 824.2031,26.3594 824.2031,26.6563 C824.2031,26.9219 824.3438,27.1719 824.5625,27.3281 C824.7031,27.4531 824.9063,27.5 825.3281,27.5 L827.6875,27.5 C828.0469,27.5 828.2656,27.4688 828.4063,27.375 C828.6563,27.2344 828.8125,26.9375 828.8125,26.6563 C828.8125,26.375 828.6719,26.125 828.4531,25.9688 C828.2813,25.8281 828.125,25.7969 827.6563,25.7969 L824.2656,17.5938 L820.5938,17.5938 C820.1406,17.5938 820.0156,17.6094 819.8594,17.7031 C819.6094,17.875 819.4531,18.1563 819.4531,18.4375 C819.4531,18.7188 819.5938,18.9688 819.8125,19.1406 C819.9844,19.25 820.1563,19.2813 820.5938,19.2813 L821.6719,19.2813 L819.0313,25.7969 C818.6094,25.7969 818.4531,25.8125 818.2969,25.9219 C818.0469,26.0781 817.8906,26.3594 817.8906,26.6563 C817.8906,27.2188 818.2656,27.5 819.0156,27.5 L821.2813,27.5 C821.6406,27.5 821.8594,27.4688 821.9844,27.375 C822.25,27.2344 822.3906,26.9375 822.3906,26.6563 C822.3906,26.375 822.2656,26.125 822.0469,25.9531 C821.875,25.8281 821.7344,25.7969 821.2813,25.7969 L820.8906,25.7969 L821.2813,24.8125 L825.3281,24.8125 Z M824.625,23.1094 L821.9531,23.1094 L823.2969,19.8438 L824.625,23.1094 Z " fill="#000000"/><text fill="#000000" font-family="sans-serif" font-size="12" font-style="italic" lengthAdjust="spacingAndGlyphs" textLength="67" x="843.75" y="27.1543">Observable</text><line style="stroke:#A80036;stroke-width:1.5;" x1="764.5" x2="957.5" y1="39" y2="39"/><polygon fill="none" points="774.5,45,778.5,49,774.5,53,770.5,49" style="stroke:#B38D22;stroke-width:1.0;"/><text fill="#000000" font-family="sans-serif" font-size="11" lengthAdjust="spacingAndGlyphs" textLength="169" x="783.5" y="53.2104">Vector&lt;Observer&gt; observers</text><line style="stroke:#A80036;stroke-width:1.5;" x1="764.5" x2="957.5" y1="59.8047" y2="59.8047"/><ellipse cx="774.5" cy="70.8047" fill="#84BE84" rx="3" ry="3" style="stroke:#038048;stroke-width:1.0;"/><text fill="#000000" font-family="sans-serif" font-size="11" lengthAdjust="spacingAndGlyphs" textLength="74" x="783.5" y="74.0151">Observable()</text><ellipse cx="774.5" cy="83.6094" fill="#84BE84" rx="3" ry="3" style="stroke:#038048;stroke-width:1.0;"/><text fill="#000000" font-family="sans-serif" font-size="11" lengthAdjust="spacingAndGlyphs" textLength="135" x="783.5" y="86.8198">void attach(Observer o)</text><ellipse cx="774.5" cy="96.4141" fill="#84BE84" rx="3" ry="3" style="stroke:#038048;stroke-width:1.0;"/><text fill="#000000" font-family="sans-serif" font-size="11" lengthAdjust="spacingAndGlyphs" textLength="139" x="783.5" y="99.6245">void detach(Observer o)</text><ellipse cx="774.5" cy="109.2188" fill="#84BE84" rx="3" ry="3" style="stroke:#038048;stroke-width:1.0;"/><text fill="#000000" font-family="sans-serif" font-size="11" lengthAdjust="spacingAndGlyphs" textLength="127" x="783.5" y="112.4292">void notifyObservers()</text><ellipse cx="774.5" cy="122.0234" fill="#84BE84" rx="3" ry="3" style="stroke:#038048;stroke-width:1.0;"/><text fill="#000000" font-family="sans-serif" font-size="11" font-style="italic" lengthAdjust="spacingAndGlyphs" textLength="106" x="783.5" y="125.2339">Object getUpdate()</text></a><!--MD5=[9b5d49e7de9448316a3a148124b135af]
reverse link JPanel to CourseController--><path codeLine="14" d="M329.574,110.625 C314.888,133.801 295.88,163.799 278.224,191.662 " fill="none" id="JPanel-backto-CourseController" style="stroke:#A80036;stroke-width:1.0;"/><polygon fill="none" points="323.699,106.819,340.317,93.672,335.525,114.313,323.699,106.819" style="stroke:#A80036;stroke-width:1.0;"/><!--MD5=[19e87d18ee8b35cf2f4019def90c617d]
reverse link Observer to CourseController--><path codeLine="17" d="M448.874,111.86 C416.985,134.948 376.147,164.516 338.22,191.975 " fill="none" id="Observer-backto-CourseController" style="stroke:#A80036;stroke-width:1.0;stroke-dasharray:7.0,7.0;"/><polygon fill="none" points="444.827,106.148,465.132,100.089,453.038,117.488,444.827,106.148" style="stroke:#A80036;stroke-width:1.0;"/><!--MD5=[76368ddce1b42efbfc12a83b227affab]
reverse link ChangeListener to CourseController--><path codeLine="20" d="M100.3874,109.597 C118.507,132.91 142.193,163.385 164.17,191.662 " fill="none" id="ChangeListener-backto-CourseController" style="stroke:#A80036;stroke-width:1.0;stroke-dasharray:7.0,7.0;"/><polygon fill="none" points="94.7564,113.759,88.0099,93.672,105.8103,105.168,94.7564,113.759" style="stroke:#A80036;stroke-width:1.0;"/><!--MD5=[8d1d26efbaf4cf9bcbfb8fb22d302377]
reverse link ActionListener to CourseController--><path codeLine="23" d="M227,113.763 C227,136.47 227,165.04 227,191.662 " fill="none" id="ActionListener-backto-CourseController" style="stroke:#A80036;stroke-width:1.0;stroke-dasharray:7.0,7.0;"/><polygon fill="none" points="220,113.672,227,93.672,234,113.672,220,113.672" style="stroke:#A80036;stroke-width:1.0;"/><!--MD5=[6e6a9607756e23472852c994c8cb63ca]
reverse link JPanel to BarChartObserver--><path codeLine="33" d="M384.158,109.766 C408.388,142.396 442.975,188.974 468.943,223.943 " fill="none" id="JPanel-backto-BarChartObserver" style="stroke:#A80036;stroke-width:1.0;"/><polygon fill="none" points="378.511,113.902,372.207,93.672,389.75,105.556,378.511,113.902" style="stroke:#A80036;stroke-width:1.0;"/><!--MD5=[d5663302545624b46f044c22b889386c]
reverse link Observer to BarChartObserver--><path codeLine="36" d="M505.753,120.463 C505.597,151.978 505.396,192.485 505.241,223.762 " fill="none" id="Observer-backto-BarChartObserver" style="stroke:#A80036;stroke-width:1.0;stroke-dasharray:7.0,7.0;"/><polygon fill="none" points="498.753,120.271,505.852,100.306,512.753,120.34,498.753,120.271" style="stroke:#A80036;stroke-width:1.0;"/><!--MD5=[26870fba33b70a7caec39fbd747d7223]
reverse link Observable to CourseData--><path codeLine="48" d="M861,152.244 C861,174.131 861,197.271 861,217.344 " fill="none" id="Observable-backto-CourseData" style="stroke:#A80036;stroke-width:1.0;"/><polygon fill="none" points="854,152.204,861,132.204,868,152.204,854,152.204" style="stroke:#A80036;stroke-width:1.0;"/><!--MD5=[ba1304b5407530a3a5453add82ea7e7e]
@startuml
class CourseController [[java:observer.pattern.CourseController]] {
	-CourseData courseData
	-Vector<JSlider> sliders
	-JPanel coursePanel
	+CourseController(CourseData courses)
	+void addCourse(CourseRecord record)
	+void update(Observable o)
	+void actionPerformed(ActionEvent arg0)
	+void stateChanged(ChangeEvent arg0)
	+{static}void main(String[] args)
}
class JPanel [[java:javax.swing.JPanel]] {
}
JPanel <|- - CourseController
interface Observer [[java:observer.pattern.Observer]] {
}
Observer <|.. CourseController
interface ChangeListener [[java:javax.swing.event.ChangeListener]] {
}
ChangeListener <|.. CourseController
interface ActionListener [[java:java.awt.event.ActionListener]] {
}
ActionListener <|.. CourseController

class BarChartObserver [[java:observer.pattern.BarChartObserver]] {
	-Vector<CourseRecord> courseData
	+BarChartObserver(CourseData data)
	+void paint(Graphics g)
	+void update(Observable o)
}
class JPanel [[java:javax.swing.JPanel]] {
}
JPanel <|- - BarChartObserver
interface Observer [[java:observer.pattern.Observer]] {
}
Observer <|.. BarChartObserver


class CourseData [[java:observer.pattern.CourseData]] {
	-Vector<CourseRecord> courseData
	+CourseData()
	+void addCourseRecord(CourseRecord courseRecord)
	+void changeCourseRecord(String subjectName, int numOfStudents)
	+Vector<CourseRecord> getUpdate()
}
class Observable [[java:observer.pattern.Observable]] {
}
Observable <|- - CourseData

abstract class Observable [[java:observer.pattern.Observable]] {
	#Vector<Observer> observers
	+Observable()
	+void attach(Observer o)
	+void detach(Observer o)
	+void notifyObservers()
	+{abstract}Object getUpdate()
}

interface Observer [[java:observer.pattern.Observer]] {
	void update(Observable o)
}
@enduml

PlantUML version 1.2020.22(Sun Dec 06 09:36:27 UTC 2020)
(GPL source distribution)
Java Runtime: Java(TM) SE Runtime Environment
JVM: Java HotSpot(TM) 64-Bit Server VM
Default Encoding: UTF-8
Language: en
Country: US
--></g></svg>