<?xml version="1.0" encoding="UTF-8" standalone="no"?><svg xmlns="http://www.w3.org/2000/svg" xmlns:xlink="http://www.w3.org/1999/xlink" contentScriptType="application/ecmascript" contentStyleType="text/css" height="317px" preserveAspectRatio="none" style="width:409px;height:317px;" version="1.1" viewBox="0 0 409 317" width="409px" zoomAndPan="magnify"><defs><filter height="300%" id="fks9ers1gde8u" width="300%" x="-1" y="-1"><feGaussianBlur result="blurOut" stdDeviation="2.0"/><feColorMatrix in="blurOut" result="blurOut2" type="matrix" values="0 0 0 0 0 0 0 0 0 0 0 0 0 0 0 0 0 0 .4 0"/><feOffset dx="4.0" dy="4.0" in="blurOut2" result="blurOut3"/><feBlend in="SourceGraphic" in2="blurOut3" mode="normal"/></filter></defs><g><!--MD5=[5ae3828665f2b951e063345412aaa9c8]
class CourseViewer--><a href="java:observer.nonpattern.CourseViewer" target="_top" title="java:observer.nonpattern.CourseViewer" xlink:actuate="onRequest" xlink:href="java:observer.nonpattern.CourseViewer" xlink:show="new" xlink:title="java:observer.nonpattern.CourseViewer" xlink:type="simple"><rect codeLine="1" fill="#FEFECE" filter="url(#fks9ers1gde8u)" height="188.8516" id="CourseViewer" style="stroke:#A80036;stroke-width:1.5;" width="283" x="33.5" y="115"/><ellipse cx="128.25" cy="131" fill="#ADD1B2" rx="11" ry="11" style="stroke:#A80036;stroke-width:1.0;"/><path d="M130.5938,126.6719 C129.6563,126.2344 129.0625,126.0938 128.1875,126.0938 C125.5625,126.0938 123.5625,128.1719 123.5625,130.8906 L123.5625,132.0156 C123.5625,134.5938 125.6719,136.4844 128.5625,136.4844 C129.7813,136.4844 130.9375,136.1875 131.6875,135.6406 C132.2656,135.2344 132.5938,134.7813 132.5938,134.3906 C132.5938,133.9375 132.2031,133.5469 131.7344,133.5469 C131.5156,133.5469 131.3125,133.625 131.125,133.8125 C130.6719,134.2969 130.6719,134.2969 130.4844,134.3906 C130.0625,134.6563 129.375,134.7813 128.6094,134.7813 C126.5625,134.7813 125.2656,133.6875 125.2656,131.9844 L125.2656,130.8906 C125.2656,129.1094 126.5156,127.7969 128.25,127.7969 C128.8281,127.7969 129.4375,127.9531 129.9063,128.2031 C130.3906,128.4844 130.5625,128.7031 130.6563,129.1094 C130.7188,129.5156 130.75,129.6406 130.8906,129.7656 C131.0313,129.9063 131.2656,130.0156 131.4844,130.0156 C131.75,130.0156 132.0156,129.875 132.1875,129.6563 C132.2969,129.5 132.3281,129.3125 132.3281,128.8906 L132.3281,127.4688 C132.3281,127.0313 132.3125,126.9063 132.2188,126.75 C132.0625,126.4844 131.7813,126.3438 131.4844,126.3438 C131.1875,126.3438 130.9844,126.4375 130.7656,126.75 L130.5938,126.6719 Z " fill="#000000"/><text fill="#000000" font-family="sans-serif" font-size="12" lengthAdjust="spacingAndGlyphs" textLength="85" x="148.75" y="135.1543">CourseViewer</text><line style="stroke:#A80036;stroke-width:1.5;" x1="34.5" x2="315.5" y1="147" y2="147"/><rect fill="none" height="6" style="stroke:#C82930;stroke-width:1.0;" width="6" x="41.5" y="155"/><text fill="#000000" font-family="sans-serif" font-size="11" lengthAdjust="spacingAndGlyphs" textLength="100" x="53.5" y="161.2104">JPanel sliderPanel</text><rect fill="none" height="6" style="stroke:#C82930;stroke-width:1.0;" width="6" x="41.5" y="167.8047"/><text fill="#000000" font-family="sans-serif" font-size="11" lengthAdjust="spacingAndGlyphs" textLength="107" x="53.5" y="174.0151">JPanel coursePanel</text><rect fill="none" height="6" style="stroke:#C82930;stroke-width:1.0;" width="6" x="41.5" y="180.6094"/><text fill="#000000" font-family="sans-serif" font-size="11" lengthAdjust="spacingAndGlyphs" textLength="132" x="53.5" y="186.8198">Vector&lt;JSlider&gt; sliders</text><rect fill="none" height="6" style="stroke:#C82930;stroke-width:1.0;" width="6" x="41.5" y="193.4141"/><text fill="#000000" font-family="sans-serif" font-size="11" lengthAdjust="spacingAndGlyphs" textLength="123" x="53.5" y="199.6245">JScrollPane scrollPane</text><rect fill="none" height="6" style="stroke:#C82930;stroke-width:1.0;" width="6" x="41.5" y="206.2188"/><text fill="#000000" font-family="sans-serif" font-size="11" lengthAdjust="spacingAndGlyphs" textLength="80" x="53.5" y="212.4292">JButton button</text><line style="stroke:#A80036;stroke-width:1.5;" x1="34.5" x2="315.5" y1="219.0234" y2="219.0234"/><ellipse cx="44.5" cy="230.0234" fill="#84BE84" rx="3" ry="3" style="stroke:#038048;stroke-width:1.0;"/><text fill="#000000" font-family="sans-serif" font-size="11" lengthAdjust="spacingAndGlyphs" textLength="88" x="53.5" y="233.2339">CourseViewer()</text><ellipse cx="44.5" cy="242.8281" fill="#84BE84" rx="3" ry="3" style="stroke:#038048;stroke-width:1.0;"/><text fill="#000000" font-family="sans-serif" font-size="11" lengthAdjust="spacingAndGlyphs" textLength="257" x="53.5" y="246.0386">void addCourse(CourseRecord courseRecord)</text><ellipse cx="44.5" cy="255.6328" fill="#84BE84" rx="3" ry="3" style="stroke:#038048;stroke-width:1.0;"/><text fill="#000000" font-family="sans-serif" font-size="11" lengthAdjust="spacingAndGlyphs" textLength="124" x="53.5" y="258.8433">void paint(Graphics g)</text><ellipse cx="44.5" cy="268.4375" fill="#84BE84" rx="3" ry="3" style="stroke:#038048;stroke-width:1.0;"/><text fill="#000000" font-family="sans-serif" font-size="11" lengthAdjust="spacingAndGlyphs" textLength="226" x="53.5" y="271.6479">void actionPerformed(ActionEvent arg0)</text><ellipse cx="44.5" cy="281.2422" fill="#84BE84" rx="3" ry="3" style="stroke:#038048;stroke-width:1.0;"/><text fill="#000000" font-family="sans-serif" font-size="11" lengthAdjust="spacingAndGlyphs" textLength="222" x="53.5" y="284.4526">void stateChanged(ChangeEvent arg0)</text><ellipse cx="44.5" cy="294.0469" fill="#84BE84" rx="3" ry="3" style="stroke:#038048;stroke-width:1.0;"/><text fill="#000000" font-family="sans-serif" font-size="11" lengthAdjust="spacingAndGlyphs" text-decoration="underline" textLength="133" x="53.5" y="297.2573">void main(String[] args)</text></a><!--MD5=[a520837ef4416b7ac44f8bb1541877a6]
class JFrame--><a href="java:javax.swing.JFrame" target="_top" title="java:javax.swing.JFrame" xlink:actuate="onRequest" xlink:href="java:javax.swing.JFrame" xlink:show="new" xlink:title="java:javax.swing.JFrame" xlink:type="simple"><rect codeLine="14" fill="#FEFECE" filter="url(#fks9ers1gde8u)" height="48" id="JFrame" style="stroke:#A80036;stroke-width:1.5;" width="74" x="7" y="7"/><ellipse cx="22" cy="23" fill="#ADD1B2" rx="11" ry="11" style="stroke:#A80036;stroke-width:1.0;"/><path d="M24.3438,18.6719 C23.4063,18.2344 22.8125,18.0938 21.9375,18.0938 C19.3125,18.0938 17.3125,20.1719 17.3125,22.8906 L17.3125,24.0156 C17.3125,26.5938 19.4219,28.4844 22.3125,28.4844 C23.5313,28.4844 24.6875,28.1875 25.4375,27.6406 C26.0156,27.2344 26.3438,26.7813 26.3438,26.3906 C26.3438,25.9375 25.9531,25.5469 25.4844,25.5469 C25.2656,25.5469 25.0625,25.625 24.875,25.8125 C24.4219,26.2969 24.4219,26.2969 24.2344,26.3906 C23.8125,26.6563 23.125,26.7813 22.3594,26.7813 C20.3125,26.7813 19.0156,25.6875 19.0156,23.9844 L19.0156,22.8906 C19.0156,21.1094 20.2656,19.7969 22,19.7969 C22.5781,19.7969 23.1875,19.9531 23.6563,20.2031 C24.1406,20.4844 24.3125,20.7031 24.4063,21.1094 C24.4688,21.5156 24.5,21.6406 24.6406,21.7656 C24.7813,21.9063 25.0156,22.0156 25.2344,22.0156 C25.5,22.0156 25.7656,21.875 25.9375,21.6563 C26.0469,21.5 26.0781,21.3125 26.0781,20.8906 L26.0781,19.4688 C26.0781,19.0313 26.0625,18.9063 25.9688,18.75 C25.8125,18.4844 25.5313,18.3438 25.2344,18.3438 C24.9375,18.3438 24.7344,18.4375 24.5156,18.75 L24.3438,18.6719 Z " fill="#000000"/><text fill="#000000" font-family="sans-serif" font-size="12" lengthAdjust="spacingAndGlyphs" textLength="42" x="36" y="27.1543">JFrame</text><line style="stroke:#A80036;stroke-width:1.5;" x1="8" x2="80" y1="39" y2="39"/><line style="stroke:#A80036;stroke-width:1.5;" x1="8" x2="80" y1="47" y2="47"/></a><!--MD5=[04935357b5c5a2aec56a7c93da5b843d]
class ActionListener--><a href="java:java.awt.event.ActionListener" target="_top" title="java:java.awt.event.ActionListener" xlink:actuate="onRequest" xlink:href="java:java.awt.event.ActionListener" xlink:show="new" xlink:title="java:java.awt.event.ActionListener" xlink:type="simple"><rect codeLine="17" fill="#FEFECE" filter="url(#fks9ers1gde8u)" height="48" id="ActionListener" style="stroke:#A80036;stroke-width:1.5;" width="118" x="116" y="7"/><ellipse cx="131" cy="23" fill="#B4A7E5" rx="11" ry="11" style="stroke:#A80036;stroke-width:1.0;"/><path d="M131.9531,19.7813 L133.6719,19.7813 C134.0625,19.7813 134.25,19.75 134.375,19.6719 C134.6406,19.5156 134.7813,19.2344 134.7813,18.9375 C134.7813,18.6719 134.6719,18.4063 134.4375,18.2344 C134.2656,18.125 134.125,18.0938 133.6719,18.0938 L128.5313,18.0938 C128.0938,18.0938 127.9688,18.1094 127.8125,18.2031 C127.5625,18.3594 127.4063,18.6563 127.4063,18.9375 C127.4063,19.2188 127.5469,19.4688 127.7656,19.6406 C127.9219,19.75 128.1094,19.7813 128.5313,19.7813 L130.25,19.7813 L130.25,26.2969 L128.5313,26.2969 C128.0938,26.2969 127.9688,26.3125 127.8125,26.4219 C127.5625,26.5781 127.4063,26.8594 127.4063,27.1563 C127.4063,27.4063 127.5469,27.6719 127.7656,27.8281 C127.9219,27.9531 128.125,28 128.5313,28 L133.6719,28 C134.4219,28 134.7813,27.7188 134.7813,27.1563 C134.7813,26.875 134.6719,26.625 134.4375,26.4531 C134.2656,26.3281 134.125,26.2969 133.6719,26.2969 L131.9531,26.2969 L131.9531,19.7813 Z " fill="#000000"/><text fill="#000000" font-family="sans-serif" font-size="12" font-style="italic" lengthAdjust="spacingAndGlyphs" textLength="86" x="145" y="27.1543">ActionListener</text><line style="stroke:#A80036;stroke-width:1.5;" x1="117" x2="233" y1="39" y2="39"/><line style="stroke:#A80036;stroke-width:1.5;" x1="117" x2="233" y1="47" y2="47"/></a><!--MD5=[a94ef3b8c8e4fd23532822afff4ed5f3]
class ChangeListener--><a href="java:javax.swing.event.ChangeListener" target="_top" title="java:javax.swing.event.ChangeListener" xlink:actuate="onRequest" xlink:href="java:javax.swing.event.ChangeListener" xlink:show="new" xlink:title="java:javax.swing.event.ChangeListener" xlink:type="simple"><rect codeLine="20" fill="#FEFECE" filter="url(#fks9ers1gde8u)" height="48" id="ChangeListener" style="stroke:#A80036;stroke-width:1.5;" width="126" x="269" y="7"/><ellipse cx="284" cy="23" fill="#B4A7E5" rx="11" ry="11" style="stroke:#A80036;stroke-width:1.0;"/><path d="M284.9531,19.7813 L286.6719,19.7813 C287.0625,19.7813 287.25,19.75 287.375,19.6719 C287.6406,19.5156 287.7813,19.2344 287.7813,18.9375 C287.7813,18.6719 287.6719,18.4063 287.4375,18.2344 C287.2656,18.125 287.125,18.0938 286.6719,18.0938 L281.5313,18.0938 C281.0938,18.0938 280.9688,18.1094 280.8125,18.2031 C280.5625,18.3594 280.4063,18.6563 280.4063,18.9375 C280.4063,19.2188 280.5469,19.4688 280.7656,19.6406 C280.9219,19.75 281.1094,19.7813 281.5313,19.7813 L283.25,19.7813 L283.25,26.2969 L281.5313,26.2969 C281.0938,26.2969 280.9688,26.3125 280.8125,26.4219 C280.5625,26.5781 280.4063,26.8594 280.4063,27.1563 C280.4063,27.4063 280.5469,27.6719 280.7656,27.8281 C280.9219,27.9531 281.125,28 281.5313,28 L286.6719,28 C287.4219,28 287.7813,27.7188 287.7813,27.1563 C287.7813,26.875 287.6719,26.625 287.4375,26.4531 C287.2656,26.3281 287.125,26.2969 286.6719,26.2969 L284.9531,26.2969 L284.9531,19.7813 Z " fill="#000000"/><text fill="#000000" font-family="sans-serif" font-size="12" font-style="italic" lengthAdjust="spacingAndGlyphs" textLength="94" x="298" y="27.1543">ChangeListener</text><line style="stroke:#A80036;stroke-width:1.5;" x1="270" x2="394" y1="39" y2="39"/><line style="stroke:#A80036;stroke-width:1.5;" x1="270" x2="394" y1="47" y2="47"/></a><!--MD5=[8f2ae1c291a8184091281bd49d375ee5]
reverse link JFrame to CourseViewer--><path codeLine="16" d="M73.1915,71.331 C82.8309,84.318 94.0039,99.372 105.3438,114.65 " fill="none" id="JFrame-backto-CourseViewer" style="stroke:#A80036;stroke-width:1.0;"/><polygon fill="none" points="67.4248,75.306,61.126,55.074,78.6667,66.962,67.4248,75.306" style="stroke:#A80036;stroke-width:1.0;"/><!--MD5=[1eeac3ea896167bd833d1a2441993a47]
reverse link ActionListener to CourseViewer--><path codeLine="19" d="M175,75.378 C175,87.399 175,100.934 175,114.65 " fill="none" id="ActionListener-backto-CourseViewer" style="stroke:#A80036;stroke-width:1.0;stroke-dasharray:7.0,7.0;"/><polygon fill="none" points="168,75.074,175,55.074,182,75.074,168,75.074" style="stroke:#A80036;stroke-width:1.0;"/><!--MD5=[63999a131ab366aca9121a6510800030]
reverse link ChangeListener to CourseViewer--><path codeLine="22" d="M297.8,70.448 C286.071,83.634 272.381,99.024 258.481,114.65 " fill="none" id="ChangeListener-backto-CourseViewer" style="stroke:#A80036;stroke-width:1.0;stroke-dasharray:7.0,7.0;"/><polygon fill="none" points="292.952,65.365,311.475,55.074,303.413,74.67,292.952,65.365" style="stroke:#A80036;stroke-width:1.0;"/><!--MD5=[3c174e776eb57a87d1ed43b79f704833]
@startuml
class CourseViewer [[java:observer.nonpattern.CourseViewer]] {
	-JPanel sliderPanel
	-JPanel coursePanel
	-Vector<JSlider> sliders
	-JScrollPane scrollPane
	-JButton button
	+CourseViewer()
	+void addCourse(CourseRecord courseRecord)
	+void paint(Graphics g)
	+void actionPerformed(ActionEvent arg0)
	+void stateChanged(ChangeEvent arg0)
	+{static}void main(String[] args)
}
class JFrame [[java:javax.swing.JFrame]] {
}
JFrame <|- - CourseViewer
interface ActionListener [[java:java.awt.event.ActionListener]] {
}
ActionListener <|.. CourseViewer
interface ChangeListener [[java:javax.swing.event.ChangeListener]] {
}
ChangeListener <|.. CourseViewer
@enduml

PlantUML version 1.2020.22(Sun Dec 06 09:36:27 UTC 2020)
(GPL source distribution)
Java Runtime: Java(TM) SE Runtime Environment
JVM: Java HotSpot(TM) 64-Bit Server VM
Default Encoding: UTF-8
Language: en
Country: US
--></g></svg>